<svg width="143" height="38" viewBox="0 0 143 38" fill="none" xmlns="http://www.w3.org/2000/svg">
<path d="M34.485 37.418C32.89 37.418 31.28 37.148 29.692 36.546C26.289 35.257 23.876 32.856 21.812 30.144C21.3094 30.8418 20.7929 31.5296 20.263 32.207C17.505 35.732 12.703 38.767 7.51102 36.725C1.97002 34.55 -1.40298 26.946 0.566017 21.08C1.88602 17.154 5.53602 13.067 10.384 13.206C12.945 13.306 15.446 14.596 17.817 17.034C19.309 18.568 20.573 20.302 21.76 22.048C22.2 21.358 22.633 20.668 23.064 19.984C26.389 14.705 29.824 9.248 34.584 4.856C39.551 0.272004 45.068 -1.177 49.35 0.982004C53.151 2.897 55.357 7.441 55.25 13.139C55.1259 19.1675 53.0126 24.986 49.239 29.689C45.912 33.822 40.313 37.418 34.485 37.418ZM24.53 26.16C26.457 28.894 28.495 31.242 31.31 32.31C36.573 34.305 42.45 30.879 45.689 26.852C48.825 22.953 50.605 18.052 50.699 13.056C50.755 10.036 49.891 6.342 47.298 5.036C44.343 3.546 40.388 5.687 37.677 8.19C33.361 12.174 30.233 17.143 26.922 22.404C26.138 23.647 25.347 24.906 24.53 26.16V26.16ZM10.073 17.741C7.72102 17.741 5.69302 20.121 4.88502 22.521C3.58402 26.395 6.20502 31.328 9.18402 32.497C12.879 33.947 16.082 30.18 16.685 29.41C17.5077 28.3538 18.2987 27.2733 19.057 26.17C17.596 23.973 16.214 21.9 14.557 20.194C13.505 19.113 11.896 17.81 10.21 17.744C10.164 17.741 10.119 17.741 10.073 17.741" fill="white"/>
<path d="M10.9198 37.384C9.75242 37.3813 8.59608 37.1577 7.51181 36.725C7.23417 36.6159 6.98074 36.4532 6.76602 36.2461C6.5513 36.0391 6.3795 35.7917 6.26043 35.5182C6.14137 35.2447 6.07738 34.9504 6.07213 34.6521C6.06688 34.3539 6.12046 34.0575 6.22981 33.78C6.45262 33.2194 6.88835 32.7698 7.44173 32.5295C7.9951 32.2893 8.6211 32.278 9.18281 32.498C12.8738 33.948 16.0748 30.181 16.6778 29.411C18.9878 26.461 21.0618 23.168 23.0668 19.983C26.3908 14.704 29.8278 9.247 34.5868 4.855C39.5508 0.272001 45.0698 -1.177 49.3498 0.982002C49.6166 1.116 49.8543 1.30134 50.0492 1.5274C50.2442 1.75345 50.3926 2.01578 50.486 2.29933C50.5794 2.58288 50.6159 2.88207 50.5933 3.17974C50.5708 3.47742 50.4898 3.76772 50.3548 4.034C50.0817 4.5719 49.6063 4.97949 49.033 5.16733C48.4597 5.35518 47.8353 5.30795 47.2968 5.036C44.3378 3.543 40.3868 5.686 37.6768 8.19C33.3608 12.172 30.2318 17.14 26.9218 22.399C24.8548 25.68 22.7168 29.073 20.2648 32.207C18.1218 34.941 14.7508 37.384 10.9188 37.384" fill="#FF401E"/>
<path d="M71.3779 14.987V17.749H77.0659V20.136H71.3779V24.526H68.1499V12.6H77.5509V14.987H71.3779Z" fill="white"/>
<path d="M85.8481 16.088C86.5921 16.673 86.9681 17.486 86.9811 18.528V24.525H83.9211V23.468C83.5958 23.8658 83.1721 24.1716 82.6921 24.355C82.1841 24.557 81.5971 24.659 80.9321 24.659C79.9061 24.659 79.0911 24.393 78.4861 23.861C77.8811 23.327 77.5801 22.635 77.5801 21.78C77.5801 20.905 77.9021 20.225 78.5481 19.742C79.1941 19.26 80.1211 19.013 81.3291 19.002H83.9031V18.869C83.9031 18.414 83.7431 18.059 83.4251 17.805C83.1071 17.55 82.6331 17.422 82.0021 17.422C81.5881 17.422 81.1261 17.487 80.6141 17.619C80.0852 17.7541 79.5721 17.9445 79.0831 18.187L78.1981 16.25C78.9951 15.9 79.7521 15.64 80.4711 15.467C81.2101 15.2934 81.9669 15.2072 82.7261 15.21C84.0651 15.21 85.1061 15.503 85.8481 16.088V16.088ZM83.1921 22.321C83.5651 22.088 83.7981 21.784 83.8931 21.405V20.591H81.9271C81.4571 20.591 81.1041 20.671 80.8681 20.828C80.6341 20.985 80.5151 21.238 80.5151 21.581C80.5151 21.92 80.6361 22.186 80.8771 22.379C81.1171 22.573 81.4571 22.67 81.8921 22.67C82.3861 22.67 82.8191 22.554 83.1921 22.32" fill="white"/>
<path d="M92.928 15.658C93.464 15.368 94.084 15.22 94.785 15.21V17.862C94.641 17.8489 94.4965 17.8435 94.352 17.846C93.581 17.846 92.95 18.022 92.459 18.373C91.97 18.726 91.691 19.205 91.62 19.809V24.524H88.48V15.342H91.62V16.89C91.9405 16.3718 92.3916 15.947 92.928 15.658" fill="white"/>
<path d="M98.7761 22.318H103.72V24.531H94.8501V22.76L99.6431 17.562H95.0271V15.35H103.561V17.12L98.7761 22.318Z" fill="white"/>
<path d="M112.032 15.828C112.842 16.213 113.468 16.761 113.907 17.471C114.347 18.179 114.565 19.001 114.565 19.932C114.565 20.864 114.346 21.685 113.907 22.394C113.467 23.104 112.842 23.654 112.032 24.046C111.22 24.436 110.292 24.631 109.242 24.631C108.18 24.631 107.249 24.435 106.447 24.046C105.644 23.653 105.02 23.104 104.572 22.394C104.124 21.685 103.9 20.864 103.9 19.932C103.9 19.002 104.124 18.179 104.572 17.471C105.02 16.761 105.644 16.213 106.447 15.828C107.249 15.442 108.18 15.25 109.242 15.25C110.292 15.25 111.22 15.442 112.032 15.828ZM107.663 18.244C107.259 18.688 107.058 19.261 107.058 19.964C107.058 20.681 107.258 21.257 107.663 21.695C108.066 22.134 108.593 22.352 109.243 22.352C109.884 22.352 110.408 22.134 110.811 21.695C111.215 21.257 111.418 20.681 111.418 19.965C111.418 19.261 111.215 18.688 110.811 18.244C110.408 17.8 109.884 17.579 109.242 17.579C108.592 17.579 108.066 17.799 107.663 18.244Z" fill="white"/>
<path d="M122.842 15.828C123.652 16.213 124.278 16.761 124.717 17.471C125.157 18.179 125.375 19.001 125.375 19.932C125.375 20.864 125.156 21.685 124.717 22.394C124.277 23.104 123.652 23.654 122.842 24.046C122.03 24.436 121.102 24.631 120.052 24.631C118.99 24.631 118.059 24.435 117.257 24.046C116.454 23.653 115.83 23.104 115.383 22.394C114.933 21.685 114.71 20.864 114.71 19.932C114.71 19.002 114.934 18.179 115.383 17.471C115.83 16.761 116.454 16.213 117.257 15.828C118.059 15.442 118.99 15.25 120.052 15.25C121.102 15.25 122.03 15.442 122.842 15.828ZM118.472 18.244C118.066 18.688 117.865 19.261 117.865 19.964C117.865 20.681 118.066 21.257 118.471 21.695C118.875 22.134 119.401 22.352 120.052 22.352C120.695 22.352 121.219 22.134 121.623 21.695C122.028 21.257 122.231 20.681 122.231 19.965C122.231 19.261 122.028 18.688 121.623 18.244C121.219 17.8 120.695 17.579 120.053 17.579C119.401 17.579 118.875 17.799 118.471 18.244" fill="white"/>
<path d="M141.935 16.17C142.568 16.811 142.885 17.666 142.885 18.736V24.525H139.774V19.552C139.774 19.008 139.622 18.579 139.322 18.267C139.022 17.953 138.608 17.797 138.084 17.797C137.506 17.807 137.044 18.014 136.699 18.415C136.354 18.819 136.182 19.339 136.182 19.977V24.525H133.052V19.552C133.052 19.008 132.905 18.579 132.61 18.267C132.314 17.953 131.907 17.797 131.389 17.797C130.799 17.807 130.329 18.018 129.979 18.428C129.628 18.839 129.452 19.354 129.452 19.977V24.525H126.33V15.344H129.452V16.857C129.759 16.3296 130.215 15.9043 130.762 15.634C131.309 15.361 131.946 15.221 132.671 15.21C133.456 15.21 134.136 15.394 134.71 15.764C135.285 16.132 135.693 16.64 135.935 17.289C136.247 16.607 136.697 16.093 137.283 15.746C137.87 15.4 138.566 15.221 139.375 15.21C140.449 15.21 141.302 15.53 141.935 16.17" fill="white"/>
</svg>
