<svg width="74" height="74" viewBox="0 0 74 74" fill="none" xmlns="http://www.w3.org/2000/svg">
<path d="M0 8C0 5.87827 0.842855 3.84344 2.34315 2.34315C3.84344 0.842855 5.87827 0 8 0L66 0C68.1217 0 70.1566 0.842855 71.6569 2.34315C73.1571 3.84344 74 5.87827 74 8V66C74 68.1217 73.1571 70.1566 71.6569 71.6569C70.1566 73.1571 68.1217 74 66 74H8C5.87827 74 3.84344 73.1571 2.34315 71.6569C0.842855 70.1566 0 68.1217 0 66V8Z" fill="#2075BE"/>
<path d="M33.4721 52.414C29.8741 40.7 53.6341 36.684 54.8941 40.707C54.8941 40.707 54.7841 40.812 54.7721 41.134C54.2631 43.452 52.9401 45.319 51.6681 47.197C50.7031 42.779 36.4241 48.113 35.8101 53.259C35.7531 53.739 33.8251 53.169 33.7551 53.139C33.6151 53.071 33.6181 52.884 33.4721 52.414ZM55.1371 35.143C49.1621 29.426 27.8621 33.416 30.3071 50.128C30.4001 50.762 29.5471 50.838 29.3731 50.964C29.1941 51.09 28.8131 50.717 28.5291 50.062C19.3411 28.702 46.2101 20.193 53.1981 28.463C54.2678 30.5409 54.9252 32.8062 55.1341 35.134C55.1371 35.135 55.1371 35.14 55.1371 35.143ZM47.5071 22.567C29.7821 14.089 17.6401 35.244 27.8611 51.079C30.5611 55.259 26.8811 52.664 26.6851 52.657C26.5361 52.649 26.1031 52.287 25.4751 51.789C9.00007 38.66 25.9181 9.75 47.5201 21.911C47.8771 22.116 48.3101 22.44 48.6441 22.841C48.9501 23.201 47.6591 22.625 47.5061 22.567" fill="#9E9F9E"/>
<path d="M53.1502 28.438C54.2378 30.5179 54.9158 32.7873 55.1472 35.123C55.2132 35.469 55.1892 35.642 55.1892 35.642C47.3892 38.471 33.6602 27.46 34.9442 21.382C35.0452 20.9 35.1592 20.741 35.3102 20.691C35.3822 20.665 35.5672 20.773 35.7902 21.211C37.8702 25.321 51.6682 32.767 53.1502 28.438ZM30.7732 22.934C28.6682 33.998 48.1902 45.842 54.8632 40.79V40.794C54.3783 43.112 53.4532 45.3155 52.1382 47.285C39.9862 51.835 21.3082 34.267 29.8532 22.695C30.2852 22.117 30.6412 21.739 30.8012 21.885C30.9672 22.032 30.8932 22.299 30.7732 22.935V22.934ZM28.5082 21C14.8402 33.794 32.2662 56.76 47.3942 52.134C47.2242 52.255 47.0512 52.374 46.8752 52.49C45.2682 53.461 44.3152 53.935 42.6382 54.556C40.7184 55.2066 38.7052 55.5387 36.6782 55.539C36.1642 55.539 35.6542 55.512 35.1472 55.471V55.451C17.8072 51.261 14.6752 28.106 27.9872 20.659C28.6942 20.264 29.2172 20.018 29.3612 20.042C29.5582 20.075 29.0412 20.52 28.5082 21" fill="white"/>
</svg>
