<svg width="74" height="74" viewBox="0 0 74 74" fill="none" xmlns="http://www.w3.org/2000/svg">
<path d="M0 8C0 5.87827 0.842855 3.84344 2.34315 2.34315C3.84344 0.842855 5.87827 0 8 0L66 0C68.1217 0 70.1566 0.842855 71.6569 2.34315C73.1571 3.84344 74 5.87827 74 8V66C74 68.1217 73.1571 70.1566 71.6569 71.6569C70.1566 73.1571 68.1217 74 66 74H8C5.87827 74 3.84344 73.1571 2.34315 71.6569C0.842855 70.1566 0 68.1217 0 66V8Z" fill="white"/>
<path d="M37.8 19.3C37.8 25 45.4 25 45.4 30.8V35L29 38.5V30.8C29 25 36.7 25 36.7 19.3C26.3 19.6 18 28.1 18 38.6C18 44.4 20.5 49.5 24.4 53C27.1 52.4 29 50 29 47.2V39.6L41.8 36.9V43.6C41.8 47.6 39 51.1 35.1 51.9L25.5 54C28.8 56.5 32.8 58.1 37.3 58.1C47.9 58.1 56.6 49.4 56.6 38.7C56.5 28.1 48.2 19.6 37.8 19.3V19.3Z" fill="#FFD200"/>
</svg>
