<svg width="74" height="74" viewBox="0 0 74 74" fill="none" xmlns="http://www.w3.org/2000/svg">
<path d="M0 8C0 5.87827 0.842855 3.84344 2.34315 2.34315C3.84344 0.842855 5.87827 0 8 0L66 0C68.1217 0 70.1566 0.842855 71.6569 2.34315C73.1571 3.84344 74 5.87827 74 8V66C74 68.1217 73.1571 70.1566 71.6569 71.6569C70.1566 73.1571 68.1217 74 66 74H8C5.87827 74 3.84344 73.1571 2.34315 71.6569C0.842855 70.1566 0 68.1217 0 66V8Z" fill="#F37A26"/>
<path d="M58.8701 37.5C58.8701 49.392 49.2391 59 37.3851 59C25.5001 59 15.8701 49.362 15.8701 37.5C15.8701 25.608 25.5011 16 37.3551 16C49.2401 16 58.8701 25.608 58.8701 37.5Z" fill="white"/>
<path d="M54.8701 37.5C54.8701 47.16 47.0301 55 37.3701 55C27.7101 55 19.8701 47.16 19.8701 37.5C19.8701 27.84 27.7101 20 37.3701 20C47.0301 20 54.8701 27.84 54.8701 37.5Z" fill="#F37A26"/>
<path d="M42.8701 27.5C42.8701 28.886 41.7561 30 40.3701 30C40.0416 30.0009 39.7161 29.9369 39.4123 29.8116C39.1086 29.6863 38.8326 29.5022 38.6003 29.2698C38.368 29.0375 38.1839 28.7615 38.0585 28.4578C37.9332 28.1541 37.8692 27.8286 37.8701 27.5C37.8701 26.114 38.9841 25 40.3701 25C41.7561 25 42.8701 26.114 42.8701 27.5Z" fill="white"/>
<path d="M54.8701 39H30.8701V36H54.8701V39Z" fill="white"/>
</svg>
