<svg version="1" xmlns="http://www.w3.org/2000/svg" width="450.667" height="450.667" viewBox="0 0 338.000000 338.000000"><path d="M237.4 18.5c-13.8 3.7-28 13.1-42.4 28.1-13.1 13.7-22.8 26.8-41.4 55.7l-8.8 13.7-5.1-7.2c-7.6-10.7-20-22.7-27.7-26.8-14.4-7.6-26.8-7.4-40.1.6-11.7 7-22 22.1-24.5 35.6-.7 4.3-.7 15.4 0 19.4 3 16.3 12.6 31.8 24.5 39.8 22.5 15.2 48.9 7.9 69.2-18.9l4.1-5.5 4.2 4.7c11.4 13.3 22 20.7 35.1 24.9 34.4 11 77.6-12.3 98.2-53.1 11.9-23.5 16.5-52 11.8-72.5-.2-.8-.7-2.7-1-4.3-1-5-5.5-14-9.5-19.2-4.7-6.1-13.1-12.2-20.3-14.7-6.3-2.1-18.9-2.3-26.3-.3zm23 21.6c9.2 4.3 14.9 17 15 32.9.1 18.8-3.2 32.2-12 48.8-7.1 13.6-14.3 22-26.2 30.5-23.3 16.7-47 16.6-65.3-.5-5.2-4.8-13.9-15.4-13.9-16.8 0-2.2 31.2-49.5 39.4-59.7 24.2-30.1 47-42.8 63-35.2zM101.3 99.5c2.1 1 6.6 4.5 10 7.9 5.9 5.8 15.7 17.7 15.7 19.1 0 .3 1.1 2.1 2.5 3.9 1.4 1.8 2.5 3.7 2.5 4.3 0 1.7-12.4 17.6-16.6 21.2-11.9 10.5-26.4 11-35.9 1.4-8.2-8.4-13.4-22.3-12.2-32.6 1.3-10.2 9.1-22.1 17.2-25.9 4.8-2.2 11.2-2 16.8.7zM0 294v27h7c3.9 0 7.1-.3 7.2-.8 0-.4.2-4.7.3-9.7l.1-9 12.7-.3c13.4-.3 12.9-.1 12.9-5.2 0-6.2.9-5.8-12.7-5.6-11.8.1-12.5 0-12.6-1.9-.5-7.2-.3-9.8.9-10.3.7-.2 7-.5 14-.6l12.7-.1.1-5.3V267H0v27zM57.5 279.7c-5.4 1.2-11.5 3.6-11.5 4.5 0 .9 3 7.8 3.4 7.8 0 0 1.9-.7 4.1-1.5 6-2.1 13.1-1.9 15.5.5 3.7 3.7 2.6 4.8-4.8 4.8-11.8-.1-18.1 2.1-20.1 7-3 7.1-.4 14.1 6.1 16.7 5.4 2.1 12.6 1.9 17.1-.5 3.5-1.9 3.7-1.9 3.7-.2s.9 1.9 7 2l7 .1v-15.6c0-14.2-.2-15.9-2.2-19.1-2.9-4.8-8.6-7.2-16.8-7.1-3.6.1-7.4.3-8.5.6zM71 305.2c0 3-.9 4.2-4.5 6-4.1 2.2-9.8.4-10.3-3.1-.5-3.6 2.2-5.1 9-5.1 5.4 0 5.8.2 5.8 2.2zM91.9 283.3c0 4.8 0 35.8.1 36.9 0 .4 3.2.7 7 .6l7-.1v-10.8c0-6 .5-11.9 1.2-13.3 1.6-3.6 5.2-5.7 9.7-5.8 3.5 0 3.7-.2 3.3-2.6-.3-1.7-.1-2.3.7-1.8.6.4.9 1.2.6 1.7-.6.9 3 1.2 14.4 1l6.5-.1-2.5 2.7c-1.3 1.5-4.5 5-7.1 7.8-8.3 9-11.8 13-11.9 13.7-.1 1-.1 5.4 0 6.7.1.6 8.3.9 19.9.8l19.7-.2.3-4.8c.4-5.4 1.6-4.9-13.6-4.8-9.4.1-9.3.2-2.6-6.9 15.8-16.9 15.4-16.3 15.4-20.7v-4.1l-17.7-.1c-9.8 0-18.5.2-19.5.5s-1.5 1.4-1.3 2.9c.1 1.4-.2 2.5-.7 2.5-.5 0-.7-1.4-.4-3 .4-2.6.1-3-2-3-2.9 0-10.4 3.6-10.4 5 0 .6-.4 1-1 1-.5 0-1-1.3-1-2.9v-2.9l-7-.1h-7l-.1 4.2z"/><path d="M174.2 281.1c-17.7 8.2-16.3 32.7 2.2 38.4 15.4 4.7 29.4-1.7 33.1-15.2 1.3-4.7 1.3-4.7 1.4-1.3.1 4 3.1 9.4 7 12.7 4 3.5 10.3 5.2 18.4 5 6.3-.2 8.2-.7 12.3-3.3 6.5-4 9.7-9.7 9.7-17.3.1-10.6-6-17.8-17.2-20.2-7.1-1.5-15-.6-20.1 2.2-4.9 2.8-10 10-10 14.2 0 3.3-1.2 2.9-1.7-.5-.6-3.7-3.5-8.8-6.5-11.3-6.3-5.3-20.8-7-28.6-3.4zm17.5 10.4c4.5 3 4.8 12.9.5 16.8-4.3 3.9-12.2 2.6-14.7-2.4-5.5-10.5 4.6-20.6 14.2-14.4zm50.1 1.2c1.2 1.3 2.3 3.4 2.3 4.6.1 1.2.2 2.9.3 3.7.2 2.4-2.1 6.6-4.6 8.2-3 2-9.2 1.6-11.8-.7-2.4-2.1-3.5-7.2-2.6-12 1.3-6.9 11.4-9.2 16.4-3.8zM263 300.1V321h14v-11.5c0-13.5 1.2-17 6.3-18.3 3.9-1 6.1-.6 8.3 1.9 1.3 1.5 1.7 4.1 1.8 14.6l.1 12.8h13.9l.1-12.3c.1-11.6.2-12.4 2.5-14.7 4-4 10.7-3.8 12.6.4.4.9.9 7 1 13.6.1 6.6.3 12.3.3 12.7.1.5 3.1.7 6.9.5l6.7-.2v-16c0-14.9-.1-16.2-2.2-19.1-4.3-6.1-13.1-8.1-21.2-4.8-2.2.9-4.7 2.7-5.7 4.2l-1.7 2.6-1.7-2.1c-6-7.4-18.7-8.4-25.7-2l-2.3 2v-6.2h-7l-7 .1v20.9z"/></svg>