<svg width="74" height="74" viewBox="0 0 74 74" fill="none" xmlns="http://www.w3.org/2000/svg">
<path d="M0 8C0 5.87827 0.842855 3.84344 2.34315 2.34315C3.84344 0.842855 5.87827 0 8 0L66 0C68.1217 0 70.1566 0.842855 71.6569 2.34315C73.1571 3.84344 74 5.87827 74 8V66C74 68.1217 73.1571 70.1566 71.6569 71.6569C70.1566 73.1571 68.1217 74 66 74H8C5.87827 74 3.84344 73.1571 2.34315 71.6569C0.842855 70.1566 0 68.1217 0 66V8Z" fill="#13366D"/>
<path d="M39.0132 23.91C38.8732 23.91 38.8072 23.806 38.8672 23.678L39.1792 23.022C39.2151 22.9554 39.2675 22.8992 39.3315 22.8588C39.3954 22.8183 39.4686 22.795 39.5442 22.791H51.0222C51.1622 22.791 51.2282 22.895 51.1672 23.022L50.8572 23.678C50.8211 23.7448 50.7686 23.8012 50.7045 23.8418C50.6404 23.8824 50.5669 23.9059 50.4912 23.91H39.0132Z" fill="white"/>
<path d="M38.1191 25.242C38.1551 25.1755 38.2076 25.1193 38.2715 25.0789C38.3354 25.0384 38.4086 25.0151 38.4841 25.011H49.9621C50.1021 25.011 50.1681 25.115 50.1071 25.241L49.7971 25.899C49.761 25.9656 49.7083 26.0218 49.6442 26.0622C49.5802 26.1027 49.5068 26.126 49.4311 26.13H37.9531C37.8131 26.13 37.7471 26.026 37.8071 25.899L38.1191 25.242" fill="white"/>
<path d="M37.0591 27.482C37.0952 27.4155 37.1477 27.3594 37.2116 27.319C37.2755 27.2786 37.3486 27.2552 37.4241 27.251H48.9021C49.0421 27.251 49.1081 27.354 49.0481 27.481L48.7361 28.139C48.7002 28.2056 48.6478 28.2618 48.5838 28.3022C48.5199 28.3427 48.4467 28.366 48.3711 28.37H36.8931C36.7531 28.37 36.6871 28.266 36.7481 28.139L37.0581 27.482" fill="white"/>
<path d="M35.9991 29.722C36.0349 29.6552 36.0872 29.5988 36.1512 29.5582C36.2151 29.5175 36.2884 29.4941 36.3641 29.49H47.8421C47.9821 29.49 48.0481 29.594 47.9881 29.722L47.6751 30.379C47.6392 30.4454 47.5869 30.5016 47.5232 30.542C47.4595 30.5825 47.3864 30.6059 47.3111 30.61H35.8331C35.6931 30.61 35.6261 30.506 35.6871 30.379L35.9991 29.722" fill="white"/>
<path d="M34.9388 31.962C34.9746 31.8954 35.0269 31.8392 35.0906 31.7986C35.1543 31.7579 35.2274 31.7343 35.3029 31.73H46.7829C46.9229 31.73 46.9878 31.835 46.9278 31.962L46.6158 32.618C46.5801 32.6848 46.5278 32.7413 46.4638 32.7819C46.3999 32.8226 46.3265 32.846 46.2508 32.85H34.7728C34.6328 32.85 34.5668 32.746 34.6268 32.618L34.9388 31.962" fill="white"/>
<path d="M33.879 34.202C33.9149 34.1355 33.9674 34.0793 34.0313 34.0389C34.0952 33.9984 34.1684 33.9751 34.2439 33.971H45.7219C45.8619 33.971 45.9279 34.074 45.8679 34.202L45.5559 34.859C45.52 34.9255 45.4675 34.9817 45.4036 35.0221C45.3397 35.0626 45.2665 35.0859 45.1909 35.09H33.7129C33.5719 35.09 33.5069 34.986 33.5669 34.859L33.879 34.202Z" fill="white"/>
<path d="M32.8189 36.441C32.855 36.3749 32.9074 36.319 32.9711 36.2788C33.0348 36.2386 33.1077 36.2152 33.1829 36.211H44.6619C44.8019 36.211 44.8679 36.315 44.8079 36.441L44.4959 37.099C44.4598 37.1655 44.4073 37.2216 44.3435 37.262C44.2796 37.3024 44.2064 37.3258 44.1309 37.33H32.6529C32.5129 37.33 32.4469 37.226 32.5069 37.099L32.8189 36.441" fill="white"/>
<path d="M21.174 37.33C20.4334 37.3281 19.7239 37.0322 19.2014 36.5074C18.679 35.9825 18.3864 35.2716 18.388 34.531C18.3866 33.7906 18.6793 33.08 19.2018 32.5553C19.7242 32.0306 20.4335 31.7349 21.174 31.733C21.5406 31.7338 21.9035 31.8068 22.2419 31.9478C22.5804 32.0889 22.8877 32.2952 23.1464 32.555C23.4051 32.8148 23.6101 33.123 23.7497 33.4621C23.8893 33.8011 23.9607 34.1643 23.96 34.531C23.9609 34.8977 23.8895 35.2611 23.75 35.6002C23.6105 35.9394 23.4055 36.2477 23.1468 36.5076C22.8881 36.7676 22.5807 36.974 22.2422 37.1151C21.9037 37.2562 21.5407 37.3292 21.174 37.33" fill="#ED1834"/>
<path d="M36.1049 21.67C35.9649 21.67 35.8509 21.555 35.8509 21.414V20.807C35.8509 20.667 35.9649 20.551 36.1049 20.551L53.9149 20.551C53.9826 20.5513 54.0475 20.5784 54.0953 20.6263C54.1431 20.6743 54.1699 20.7393 54.1699 20.807V21.414C54.1699 21.554 54.0549 21.67 53.9149 21.67L36.1049 21.67Z" fill="white"/>
<path d="M43.7032 38.441C43.8432 38.441 43.9082 38.545 43.8472 38.671L36.5942 53.764C36.5322 53.892 36.3862 53.892 36.3242 53.764L29.6992 39.794C29.6635 39.7272 29.6111 39.6707 29.5472 39.6301C29.4832 39.5894 29.4099 39.566 29.3342 39.562H18.6442C18.5042 39.562 18.3892 39.447 18.3892 39.306V38.697C18.3892 38.6293 18.416 38.5643 18.4638 38.5163C18.5116 38.4684 18.5765 38.4413 18.6442 38.441H43.7032" fill="white"/>
<path d="M18.644 20.55H27.825C27.8926 20.5505 27.9574 20.5777 28.0051 20.6256C28.0528 20.6735 28.0797 20.7384 28.08 20.806L28.08 21.413C28.08 21.553 27.966 21.669 27.825 21.669H26.464C26.126 21.689 24.171 21.699 24.916 23.992L31.018 37.097C31.078 37.225 31.011 37.33 30.871 37.33H28.784C28.644 37.33 28.479 37.226 28.419 37.099L21.829 23.259C21.527 22.636 21.165 22.213 20.743 21.996C20.32 21.78 19.768 21.668 19.05 21.668H18.644C18.504 21.668 18.389 21.553 18.389 21.412V20.805C18.389 20.665 18.503 20.549 18.644 20.549" fill="white"/>
</svg>
