<svg width="74" height="74" viewBox="0 0 74 74" fill="none" xmlns="http://www.w3.org/2000/svg">
<path d="M0 8C0 5.87827 0.842855 3.84344 2.34315 2.34315C3.84344 0.842855 5.87827 0 8 0L66 0C68.1217 0 70.1566 0.842855 71.6569 2.34315C73.1571 3.84344 74 5.87827 74 8V66C74 68.1217 73.1571 70.1566 71.6569 71.6569C70.1566 73.1571 68.1217 74 66 74H8C5.87827 74 3.84344 73.1571 2.34315 71.6569C0.842855 70.1566 0 68.1217 0 66V8Z" fill="#FF0000"/>
<path d="M36.497 19C43.025 19 50 30.835 50 41.083C50 49.133 45.334 56 36.497 56C27.654 56 23 49.133 23 41.083C23 30.835 29.969 19 36.497 19Z" fill="white"/>
</svg>
