<svg width="74" height="74" viewBox="0 0 74 74" fill="none" xmlns="http://www.w3.org/2000/svg">
<path d="M0 8C0 5.87827 0.842855 3.84344 2.34315 2.34315C3.84344 0.842855 5.87827 0 8 0L66 0C68.1217 0 70.1566 0.842855 71.6569 2.34315C73.1571 3.84344 74 5.87827 74 8V66C74 68.1217 73.1571 70.1566 71.6569 71.6569C70.1566 73.1571 68.1217 74 66 74H8C5.87827 74 3.84344 73.1571 2.34315 71.6569C0.842855 70.1566 0 68.1217 0 66V8Z" fill="#00559F"/>
<path d="M25.417 28.14C25.3649 28.0514 25.3311 27.9533 25.3176 27.8514C25.3042 27.7496 25.3113 27.646 25.3387 27.547C25.366 27.4479 25.4129 27.3553 25.4767 27.2748C25.5405 27.1942 25.6199 27.1273 25.71 27.078L29.32 25.052C29.3812 25.0179 29.45 25.0001 29.52 25.0001C29.59 25.0001 29.6589 25.0179 29.72 25.052L33.33 27.078C33.713 27.293 33.844 27.768 33.623 28.141C33.5131 28.3207 33.3378 28.4508 33.1339 28.5037C32.93 28.5567 32.7135 28.5285 32.53 28.425L29.52 26.735L26.51 28.425C26.3265 28.5285 26.1101 28.5567 25.9062 28.5037C25.7023 28.4508 25.5269 28.3207 25.417 28.141" fill="#EE3224"/>
<path d="M34.1751 47.856L33.6921 46.281L33.2121 47.856H34.1751ZM36.4431 49.712C36.4511 49.7347 36.4535 49.7589 36.4502 49.7828C36.4469 49.8066 36.4379 49.8292 36.424 49.8488C36.41 49.8684 36.3916 49.8844 36.3702 49.8954C36.3488 49.9064 36.3251 49.9121 36.3011 49.912H34.9171C34.8849 49.9121 34.8536 49.9021 34.8274 49.8834C34.8012 49.8648 34.7815 49.8384 34.7711 49.808L34.5381 49.043H32.8481L32.6151 49.808C32.6051 49.8386 32.5857 49.8652 32.5597 49.8841C32.5336 49.903 32.5022 49.9131 32.4701 49.913H31.0861C31.0663 49.9133 31.0467 49.9096 31.0283 49.9023C31.0099 49.8949 30.9932 49.884 30.9791 49.8701C30.9649 49.8563 30.9537 49.8398 30.946 49.8216C30.9382 49.8033 30.9342 49.7838 30.9341 49.764C30.9341 49.747 30.9371 49.728 30.9441 49.712L32.8471 44.806C32.8584 44.7774 32.8781 44.7529 32.9037 44.7358C32.9292 44.7186 32.9593 44.7097 32.9901 44.71H34.3961C34.4611 44.71 34.5161 44.75 34.5381 44.806L36.4431 49.712ZM47.8351 49.682C47.8518 49.706 47.8605 49.7347 47.8601 49.764C47.8601 49.8038 47.8443 49.8419 47.8161 49.8701C47.788 49.8982 47.7499 49.914 47.7101 49.914H46.3121C46.2861 49.914 46.2605 49.9074 46.2377 49.8948C46.215 49.8822 46.1958 49.8641 46.1821 49.842L44.8121 47.637V49.765C44.8115 49.8044 44.7955 49.8421 44.7674 49.8698C44.7394 49.8975 44.7015 49.913 44.6621 49.913H43.3481C43.3284 49.9133 43.3088 49.9096 43.2905 49.9023C43.2722 49.8951 43.2555 49.8842 43.2414 49.8705C43.2273 49.8567 43.216 49.8404 43.2083 49.8223C43.2005 49.8042 43.1963 49.7847 43.1961 49.765V44.858C43.1963 44.8383 43.2005 44.8188 43.2083 44.8007C43.216 44.7826 43.2273 44.7663 43.2414 44.7525C43.2555 44.7388 43.2722 44.7279 43.2905 44.7206C43.3088 44.7134 43.3284 44.7097 43.3481 44.71H44.6611C44.7007 44.7097 44.7388 44.7251 44.7671 44.7529C44.7954 44.7806 44.8115 44.8184 44.8121 44.858V46.987L46.1821 44.782C46.1958 44.7599 46.215 44.7418 46.2377 44.7292C46.2605 44.7166 46.2861 44.71 46.3121 44.71H47.7101C47.7372 44.7098 47.7638 44.7169 47.7872 44.7307C47.8105 44.7445 47.8296 44.7644 47.8425 44.7883C47.8554 44.8122 47.8615 44.8391 47.8602 44.8662C47.8589 44.8933 47.8502 44.9195 47.8351 44.942L46.2261 47.312L47.8351 49.682ZM28.9601 48.296C28.9531 48.011 28.7441 47.85 28.2721 47.85H27.6641V48.731H28.2721C28.7441 48.731 28.9521 48.572 28.9601 48.296ZM30.6151 48.286C30.6131 48.71 30.4921 49.913 28.8131 49.913H26.2001C26.1804 49.9131 26.1608 49.9094 26.1426 49.902C26.1243 49.8945 26.1077 49.8836 26.0937 49.8698C26.0797 49.8559 26.0685 49.8395 26.0609 49.8213C26.0532 49.8032 26.0492 49.7837 26.0491 49.764V44.858C26.0491 44.776 26.1161 44.71 26.1991 44.71H30.0871C30.1265 44.71 30.1644 44.7255 30.1924 44.7532C30.2205 44.7809 30.2365 44.8186 30.2371 44.858V45.748C30.2371 45.7878 30.2213 45.8259 30.1931 45.8541C30.165 45.8822 30.1269 45.898 30.0871 45.898H27.6641V46.67H28.8141C30.4921 46.67 30.6131 47.872 30.6141 48.287L30.6151 48.286ZM41.9441 44.858V49.764C41.9441 49.7839 41.9401 49.8035 41.9325 49.8219C41.9248 49.8402 41.9136 49.8568 41.8994 49.8708C41.8853 49.8847 41.8685 49.8957 41.8501 49.9032C41.8317 49.9106 41.8119 49.9143 41.7921 49.914H40.4821C40.4623 49.9141 40.4427 49.9103 40.4244 49.9029C40.406 49.8954 40.3894 49.8844 40.3754 49.8704C40.3613 49.8565 40.3502 49.8399 40.3426 49.8216C40.335 49.8034 40.3311 49.7838 40.3311 49.764V47.856H38.7711V49.764C38.7711 49.7839 38.7671 49.8035 38.7595 49.8219C38.7518 49.8402 38.7406 49.8568 38.7264 49.8708C38.7123 49.8847 38.6955 49.8957 38.6771 49.9032C38.6587 49.9106 38.6389 49.9143 38.6191 49.914H37.3101C37.2902 49.9143 37.2705 49.9106 37.2521 49.9032C37.2336 49.8957 37.2169 49.8847 37.2027 49.8708C37.1886 49.8568 37.1773 49.8402 37.1697 49.8219C37.162 49.8035 37.1581 49.7839 37.1581 49.764V44.858C37.1583 44.8383 37.1625 44.8188 37.1703 44.8007C37.178 44.7826 37.1893 44.7663 37.2034 44.7525C37.2175 44.7388 37.2342 44.7279 37.2525 44.7206C37.2708 44.7134 37.2904 44.7097 37.3101 44.71H38.6201C38.6595 44.71 38.6974 44.7255 38.7254 44.7532C38.7535 44.7809 38.7695 44.8186 38.7701 44.858V46.67H40.3301V44.858C40.3303 44.8383 40.3345 44.8188 40.3423 44.8007C40.35 44.7826 40.3613 44.7663 40.3754 44.7525C40.3895 44.7388 40.4062 44.7279 40.4245 44.7206C40.4428 44.7134 40.4624 44.7097 40.4821 44.71H41.7921C41.8118 44.7097 41.8313 44.7134 41.8496 44.7206C41.8679 44.7279 41.8846 44.7388 41.8987 44.7525C41.9128 44.7663 41.9241 44.7826 41.9319 44.8007C41.9397 44.8188 41.9438 44.8383 41.9441 44.858Z" fill="white"/>
<path d="M44.79 29.705H43.477C43.4375 29.705 43.3997 29.7205 43.3716 29.7482C43.3435 29.7759 43.3275 29.8136 43.327 29.853V31.993C42.068 32.179 41.847 31.743 41.847 31.363V29.853C41.8467 29.8333 41.8426 29.8138 41.8348 29.7957C41.827 29.7776 41.8158 29.7613 41.8016 29.7475C41.7875 29.7338 41.7708 29.7229 41.7525 29.7156C41.7342 29.7084 41.7147 29.7047 41.695 29.705H40.381C40.311 29.705 40.251 29.753 40.234 29.818C40.233 30.015 40.229 30.444 40.23 30.853C40.233 31.404 40.244 32.02 40.28 32.236C40.397 32.932 41.042 33.204 41.7 33.281C42.2441 33.3363 42.7936 33.3005 43.326 33.175V34.769C43.326 34.851 43.394 34.918 43.477 34.918H44.79C44.8099 34.9183 44.8296 34.9146 44.848 34.9072C44.8664 34.8997 44.8832 34.8887 44.8973 34.8748C44.9115 34.8608 44.9227 34.8442 44.9304 34.8259C44.938 34.8075 44.942 34.7879 44.942 34.768V29.853C44.9417 29.8333 44.9376 29.8138 44.9298 29.7957C44.922 29.7776 44.9108 29.7613 44.8966 29.7475C44.8825 29.7338 44.8658 29.7229 44.8475 29.7156C44.8292 29.7084 44.8097 29.7047 44.79 29.705V29.705ZM54.455 33.726H53.839V32.786H54.455C54.571 32.786 54.732 32.796 54.861 32.858C54.981 32.916 55.079 33.021 55.079 33.236C55.079 33.648 54.689 33.726 54.455 33.726V33.726ZM54.595 31.608H53.835V29.853C53.8345 29.8136 53.8184 29.7759 53.7903 29.7482C53.7623 29.7205 53.7244 29.705 53.685 29.705H52.374C52.3345 29.705 52.2967 29.7205 52.2686 29.7482C52.2405 29.7759 52.2245 29.8136 52.224 29.853V34.769C52.224 34.851 52.291 34.918 52.374 34.918H54.594C55.967 34.918 56.694 34.333 56.694 33.243C56.694 32.153 55.964 31.608 54.594 31.608H54.595ZM58.867 29.705H57.562C57.5424 29.7049 57.523 29.7086 57.5049 29.716C57.4868 29.7233 57.4703 29.7342 57.4563 29.7479C57.4424 29.7617 57.4313 29.778 57.4237 29.7961C57.4161 29.8141 57.4121 29.8334 57.412 29.853V34.769C57.412 34.851 57.479 34.918 57.562 34.918H58.867C58.9068 34.918 58.9449 34.9022 58.973 34.8741C59.0012 34.8459 59.017 34.8078 59.017 34.768V29.853C59.0165 29.8136 59.0004 29.7759 58.9724 29.7482C58.9443 29.7205 58.9064 29.705 58.867 29.705V29.705ZM36.786 33.71C36.24 33.71 35.688 33.263 35.688 32.304C35.688 31.519 36.089 30.901 36.786 30.901C37.482 30.901 37.883 31.519 37.883 32.304C37.883 33.264 37.331 33.71 36.786 33.71ZM36.786 29.614C35.234 29.614 34.078 30.661 34.078 32.309C34.078 33.395 34.741 35.008 36.786 35.008C38.83 35.008 39.493 33.395 39.493 32.309C39.493 30.661 38.336 29.614 36.786 29.614V29.614ZM64.854 29.704H63.484C63.4568 29.7035 63.43 29.7106 63.4065 29.7243C63.3831 29.7381 63.3638 29.758 63.351 29.782L61.883 32.476V29.852C61.8825 29.8124 61.8663 29.7746 61.838 29.7469C61.8097 29.7191 61.7716 29.7037 61.732 29.704H60.42C60.3804 29.7037 60.3423 29.7191 60.314 29.7469C60.2857 29.7746 60.2695 29.8124 60.269 29.852V34.768C60.269 34.85 60.337 34.917 60.419 34.917H61.792C61.848 34.917 61.902 34.883 61.925 34.839L63.391 32.142V34.768C63.391 34.85 63.459 34.917 63.543 34.917H64.853C64.8727 34.917 64.8922 34.9131 64.9104 34.9056C64.9286 34.898 64.9451 34.887 64.9591 34.8731C64.973 34.8591 64.984 34.8426 64.9916 34.8244C64.9991 34.8062 65.003 34.7867 65.003 34.767V29.852C65.0025 29.8126 64.9864 29.7749 64.9584 29.7472C64.9303 29.7195 64.8924 29.704 64.853 29.704H64.854ZM50.81 29.704H49.503C49.4634 29.7037 49.4253 29.7191 49.397 29.7469C49.3687 29.7746 49.3525 29.8124 49.352 29.852V31.667H47.794V29.852C47.7935 29.8124 47.7773 29.7746 47.749 29.7469C47.7207 29.7191 47.6826 29.7037 47.643 29.704H46.335C46.2955 29.704 46.2577 29.7195 46.2296 29.7472C46.2015 29.7749 46.1855 29.8126 46.185 29.852V34.768C46.185 34.85 46.252 34.917 46.335 34.917H47.643C47.6628 34.9171 47.6824 34.9133 47.7007 34.9059C47.719 34.8984 47.7357 34.8874 47.7497 34.8734C47.7637 34.8595 47.7749 34.8429 47.7825 34.8246C47.7901 34.8064 47.794 34.7868 47.794 34.767V32.857H49.352V34.767C49.352 34.85 49.419 34.917 49.502 34.917H50.81C50.8498 34.917 50.8879 34.9012 50.916 34.8731C50.9442 34.8449 50.96 34.8068 50.96 34.767V29.852C50.9595 29.8126 50.9434 29.7749 50.9153 29.7472C50.8873 29.7195 50.8494 29.704 50.81 29.704V29.704ZM16.37 33.71C15.825 33.71 15.274 33.263 15.274 32.304C15.274 31.519 15.674 30.901 16.371 30.901C17.068 30.901 17.468 31.519 17.468 32.304C17.468 33.264 16.917 33.71 16.371 33.71H16.37ZM16.37 29.614C14.82 29.614 13.664 30.661 13.664 32.309C13.664 33.395 14.326 35.008 16.371 35.008C18.415 35.008 19.079 33.395 19.079 32.309C19.079 30.661 17.922 29.614 16.371 29.614H16.37ZM22.416 30.934C22.818 30.934 23.202 31.13 23.463 31.437C23.523 31.496 23.618 31.496 23.677 31.437L24.41 30.537C24.469 30.477 24.469 30.384 24.406 30.318C23.882 29.865 23.174 29.614 22.416 29.614C20.868 29.614 19.715 30.661 19.715 32.309C19.715 33.395 20.376 35.008 22.415 35.008C23.285 35.008 23.938 34.714 24.401 34.288C24.461 34.23 24.461 34.136 24.396 34.064L23.688 33.192C23.6594 33.164 23.621 33.1484 23.581 33.1484C23.541 33.1484 23.5026 33.164 23.474 33.192C23.184 33.522 22.754 33.688 22.416 33.688C21.87 33.688 21.321 33.248 21.321 32.309C21.321 31.541 21.721 30.933 22.416 30.933V30.934ZM62.642 29.308C63.446 29.308 63.965 28.976 64.277 28.544C64.2884 28.5282 64.2965 28.5103 64.3009 28.4913C64.3053 28.4723 64.3058 28.4526 64.3024 28.4334C64.2991 28.4142 64.2919 28.3959 64.2814 28.3795C64.2708 28.3631 64.2571 28.349 64.241 28.338L63.458 27.952C63.396 27.924 63.322 27.942 63.263 28.016C63.1935 28.1163 63.1009 28.1983 62.9929 28.2552C62.885 28.3122 62.765 28.3423 62.643 28.343C62.5207 28.3423 62.4003 28.3123 62.2921 28.2554C62.1839 28.1985 62.0909 28.1164 62.021 28.016C61.963 27.941 61.889 27.924 61.827 27.952L61.045 28.338C61.0287 28.3488 61.0148 28.3628 61.0041 28.3791C60.9933 28.3955 60.986 28.4138 60.9824 28.433C60.9789 28.4522 60.9792 28.4719 60.9835 28.491C60.9877 28.51 60.9957 28.5281 61.007 28.544C61.319 28.976 61.839 29.308 62.642 29.308V29.308ZM10.68 33.726H10.077V32.869H10.68C11.13 32.869 11.364 33.045 11.364 33.281C11.364 33.561 11.158 33.726 10.68 33.726ZM10.077 30.886H10.624C10.738 30.886 10.886 30.897 11.004 30.956C11.114 31.011 11.202 31.106 11.202 31.302C11.202 31.544 11.049 31.687 10.624 31.687H10.077V30.886ZM12.468 32.327C12.3417 32.2398 12.205 32.1689 12.061 32.116C12.344 31.965 12.727 31.648 12.727 31.074C12.727 30.87 12.721 29.704 11.079 29.704H8.60998C8.5902 29.7039 8.57059 29.7077 8.55227 29.7151C8.53396 29.7226 8.51731 29.7336 8.50327 29.7476C8.48924 29.7615 8.4781 29.7781 8.4705 29.7964C8.4629 29.8146 8.45898 29.8342 8.45898 29.854V34.769C8.45898 34.851 8.52598 34.918 8.60898 34.918H11.219C12.904 34.918 13.016 33.681 13.016 33.426C13.016 32.862 12.749 32.526 12.466 32.327H12.468ZM25.82 29.705C25.7669 29.7045 25.7143 29.7144 25.6651 29.7342C25.6159 29.754 25.571 29.7833 25.5331 29.8205C25.4952 29.8576 25.4651 29.9019 25.4443 29.9507C25.4235 29.9995 25.4125 30.0519 25.412 30.105V34.015C25.412 34.515 25.823 34.918 26.33 34.918C26.5712 34.9199 26.8032 34.8259 26.9752 34.6568C27.1471 34.4876 27.2449 34.2572 27.247 34.016V31.308H28.348V34.016C28.349 34.1356 28.3736 34.2538 28.4204 34.3639C28.4672 34.4739 28.5352 34.5737 28.6205 34.6575C28.7059 34.7413 28.8069 34.8074 28.9178 34.8521C29.0287 34.8968 29.1474 34.9192 29.267 34.918C29.5082 34.9199 29.7402 34.8259 29.9122 34.6568C30.0841 34.4876 30.1819 34.2572 30.184 34.016V31.308H31.285V34.016C31.286 34.1355 31.3106 34.2536 31.3573 34.3636C31.404 34.4736 31.4719 34.5734 31.5572 34.6571C31.6424 34.7409 31.7433 34.807 31.8541 34.8518C31.9649 34.8966 32.0835 34.9191 32.203 34.918C32.3225 34.9191 32.441 34.8966 32.5518 34.8518C32.6627 34.807 32.7636 34.7409 32.8488 34.6571C32.934 34.5734 33.002 34.4736 33.0487 34.3636C33.0954 34.2536 33.1199 34.1355 33.121 34.016V30.106C33.1206 30.0529 33.1097 30.0003 33.089 29.9514C33.0683 29.9025 33.0381 29.8581 33.0002 29.8208C32.9623 29.7836 32.9174 29.7542 32.8681 29.7343C32.8188 29.7144 32.7661 29.7045 32.713 29.705H25.82Z" fill="white"/>
</svg>
