<svg width="74" height="74" viewBox="0 0 74 74" fill="none" xmlns="http://www.w3.org/2000/svg">
<path d="M0 8C0 5.87827 0.842855 3.84344 2.34315 2.34315C3.84344 0.842855 5.87827 0 8 0L66 0C68.1217 0 70.1566 0.842855 71.6569 2.34315C73.1571 3.84344 74 5.87827 74 8V66C74 68.1217 73.1571 70.1566 71.6569 71.6569C70.1566 73.1571 68.1217 74 66 74H8C5.87827 74 3.84344 73.1571 2.34315 71.6569C0.842855 70.1566 0 68.1217 0 66V8Z" fill="#FCB316"/>
<path d="M52.4039 52.844C52.2599 52.441 51.9989 52.167 51.8099 51.81C51.3509 51.197 50.8099 50.666 50.2699 50.135C50.0819 50.071 49.9999 49.888 49.8199 49.815C49.7029 49.659 49.5139 49.577 49.3609 49.458C49.048 49.2238 48.7203 49.0101 48.3799 48.818C47.7319 48.396 46.9299 48.131 46.1379 47.857C45.2498 47.6451 44.3513 47.4798 43.4459 47.362C42.5189 47.225 41.5919 47.097 40.8889 46.722C40.4839 46.602 40.1869 46.374 39.8359 46.192C39.5119 45.972 39.1609 45.788 38.8909 45.514C38.5569 45.313 38.3509 44.974 38.0889 44.7C37.9989 44.517 37.8459 44.407 37.7739 44.205C37.6839 44.169 37.6569 44.059 37.6039 43.995C37.5399 43.922 37.5399 43.775 37.4319 43.748C37.3779 44.123 37.3959 44.571 37.4319 44.956C37.4769 45.12 37.4949 45.322 37.5399 45.486C37.5669 45.633 37.7019 45.871 37.6479 45.981C34.8389 45.834 32.7859 44.928 31.0039 43.739C30.1209 43.144 29.3649 42.421 28.6629 41.643C28.3569 41.213 28.0229 40.801 27.7529 40.325C27.4739 39.859 27.2399 39.328 26.9879 38.834C26.5739 37.764 26.1869 36.665 26.0429 35.32C25.8529 34.066 25.8989 32.465 26.1779 31.303C26.2769 30.663 26.4839 30.123 26.6639 29.564C26.7809 29.308 26.9069 29.052 27.0149 28.786C27.1679 28.566 27.2489 28.265 27.4379 28.073C27.9519 27.093 28.7169 26.361 29.4999 25.657C30.3871 24.9849 31.396 24.4909 32.4709 24.202C33.5879 23.946 35.1089 23.9 36.3159 24.165C38.7639 24.678 40.6099 25.795 42.1589 27.222C43.7249 28.622 44.9319 30.397 45.7599 32.556C46.6149 34.606 46.9119 37.8 46.1469 40.124C45.8319 39.941 45.5169 39.767 45.2019 39.594C44.8239 39.484 44.4549 39.355 44.0129 39.31C43.4829 39.3 42.9599 39.31 42.6179 39.484C43.3109 39.41 43.8689 39.603 44.3019 39.767C44.5539 39.867 44.6979 39.932 44.8959 40.051C45.2829 40.28 45.6249 40.491 45.9129 40.801C46.7329 41.533 47.3179 42.503 47.5969 43.784C47.5969 43.821 47.6419 43.812 47.6329 43.748C47.6689 43.738 47.6869 43.711 47.7049 43.675C47.7499 43.62 47.8039 43.565 47.8489 43.501C47.9389 43.391 48.0289 43.281 48.0919 43.144C48.2777 42.9103 48.4405 42.6591 48.5779 42.394C48.9109 41.899 49.1629 41.332 49.4509 40.792C49.981 39.5718 50.3679 38.2943 50.6039 36.985C51.1079 33.855 50.5039 30.891 49.4509 28.704C48.3709 26.499 46.8579 24.733 44.9049 23.406C42.9329 22.088 40.6279 21.118 37.4589 21.026C37.4409 20.962 37.4139 21.036 37.3509 21.026C35.6759 20.972 34.3259 21.21 32.9839 21.557C32.3639 21.767 31.7139 21.951 31.1659 22.234C30.5359 22.444 30.0309 22.793 29.4559 23.049C29.2479 23.25 28.9329 23.351 28.7159 23.543C28.4379 23.68 28.2309 23.9 27.9519 24.037C27.5019 24.44 27.0239 24.797 26.5829 25.208C26.1509 25.611 25.7729 26.068 25.3589 26.49C25.2959 26.636 25.1879 26.737 25.0789 26.846C25.0096 26.9818 24.9149 27.103 24.7999 27.203C24.7549 27.368 24.6109 27.433 24.5569 27.597C24.4399 27.688 24.4129 27.871 24.2779 27.954C24.1609 28.246 23.9539 28.457 23.8189 28.731C23.6569 28.997 23.5309 29.29 23.3689 29.546C23.1169 30.141 22.8469 30.717 22.6389 31.358C22.4118 32.008 22.2372 32.6751 22.1169 33.353C21.9819 34.021 21.8569 34.89 21.8739 35.595C21.7839 35.851 21.8559 36.327 21.8739 36.629C21.8739 36.683 21.8379 36.702 21.8379 36.739C21.8379 37.077 21.9279 37.489 21.9459 37.699C22.0179 38.477 22.1529 39.199 22.3699 39.831C22.5049 40.536 22.7929 41.085 22.9999 41.716C23.3149 42.247 23.5299 42.879 23.9099 43.354C24.1879 43.913 24.5839 44.352 24.9619 44.809C25.3679 45.249 25.7719 45.697 26.2589 46.054C27.1499 46.841 28.1949 47.472 29.3379 48.012C31.4719 49.064 34.6589 49.751 37.5219 49.577C38.2519 49.477 38.9899 49.385 39.6559 49.22C40.2679 48.991 40.9789 48.854 41.7179 48.762C43.4009 48.652 44.8599 48.808 46.1559 49.192C47.4709 49.549 48.6059 50.089 49.5859 50.794C50.1089 51.105 50.5409 51.508 50.9819 51.892C51.4319 52.285 51.7919 52.77 52.2059 53.21C52.2599 53.374 52.3679 53.493 52.4489 53.64C52.5579 53.759 52.5039 54.033 52.7649 53.997C52.9269 53.832 52.7379 53.594 52.7289 53.393C52.5669 53.219 52.5309 52.99 52.4039 52.843V52.844Z" fill="white"/>
<path d="M43.5898 44.07C44.2148 44.146 44.4958 44.595 44.5408 45.293C44.4868 45.685 44.2788 45.913 43.9428 46C43.1008 46.01 42.6198 45.197 42.9188 44.366C43.0908 44.223 43.2088 44.022 43.5538 44.07C43.5628 44.032 43.5898 44.05 43.5898 44.07ZM46.0548 43.028C46.1548 42.952 46.2548 43.048 46.3988 43.105C46.6078 43.344 46.7338 43.669 46.8248 44.032C46.8348 44.328 46.8518 44.634 46.6528 44.701C46.2358 44.529 46.1728 43.993 45.9828 43.583C45.9458 43.439 45.9188 43.21 45.9828 43.067C46.0088 43.057 46.0188 43.028 46.0548 43.028V43.028Z" fill="white"/>
</svg>
