<svg width="74" height="74" viewBox="0 0 74 74" fill="none" xmlns="http://www.w3.org/2000/svg">
<path d="M0 8C0 5.87827 0.842855 3.84344 2.34315 2.34315C3.84344 0.842855 5.87827 0 8 0L66 0C68.1217 0 70.1566 0.842855 71.6569 2.34315C73.1571 3.84344 74 5.87827 74 8V66C74 68.1217 73.1571 70.1566 71.6569 71.6569C70.1566 73.1571 68.1217 74 66 74H8C5.87827 74 3.84344 73.1571 2.34315 71.6569C0.842855 70.1566 0 68.1217 0 66V8Z" fill="#475493"/>
<path d="M37.6599 35.46H36.5199C36.4599 41.09 35.9599 48.16 34.1899 52.92C33.9399 53.48 33.6899 54.05 33.3699 54.67C34.5799 55.02 35.8299 55.21 37.0899 55.23C38.3485 55.2002 39.5983 55.012 40.8099 54.67C40.5285 54.1641 40.2748 53.6434 40.0499 53.11C38.1599 48.29 37.7799 41.15 37.6599 35.46ZM37.5899 19H36.5199V31.08C36.2412 31.0623 35.9618 31.1032 35.6999 31.2L35.7599 23H34.7599C34.7599 23 34.8199 25.26 34.4799 31.39C32.1512 31.8821 30.0214 33.0556 28.3614 34.7612C26.7014 36.4669 25.5861 38.6277 25.1573 40.9689C24.7285 43.31 25.0056 45.7258 25.9534 47.9091C26.9011 50.0924 28.4767 51.9445 30.4799 53.23C30.6199 53.074 30.7469 52.907 30.8599 52.73V52.79C34.4499 48.23 35.3299 41.47 35.5799 35.52C35.0579 35.633 34.5299 35.716 33.9999 35.77C33.2802 40.8354 31.0176 45.5561 27.5199 49.29C26.4117 47.8287 25.7955 46.0536 25.7599 44.22C25.7599 39.9 29.2199 36.27 33.8799 35.08C34.9321 34.8337 36.0092 34.7096 37.0899 34.71C38.1709 34.7026 39.2488 34.8269 40.2999 35.08C42.5214 35.6496 44.5316 36.8474 46.0899 38.53C47.4994 39.938 48.3329 41.8212 48.4272 43.8113C48.5216 45.8014 47.8699 47.755 46.5999 49.29C43.1196 45.5378 40.854 40.8218 40.0999 35.76C39.5916 35.71 39.0871 35.6265 38.5899 35.51C38.8399 41.46 39.7199 48.28 43.3099 52.85C43.4399 52.97 43.5699 53.16 43.6299 53.22C45.6328 51.9409 47.2109 50.0959 48.164 47.9189C49.1171 45.7419 49.4024 43.3309 48.9836 40.9915C48.5648 38.6522 47.4608 36.4899 45.8116 34.7788C44.1623 33.0676 42.0422 31.8847 39.7199 31.38C39.4642 28.5944 39.3607 25.7969 39.4099 23H38.4099L38.4799 31.2C38.195 31.0975 37.8917 31.0566 37.5899 31.08V19Z" fill="white"/>
</svg>
