<svg width="74" height="74" viewBox="0 0 74 74" fill="none" xmlns="http://www.w3.org/2000/svg">
<path d="M0 8C0 5.87827 0.842855 3.84344 2.34315 2.34315C3.84344 0.842855 5.87827 0 8 0L66 0C68.1217 0 70.1566 0.842855 71.6569 2.34315C73.1571 3.84344 74 5.87827 74 8V66C74 68.1217 73.1571 70.1566 71.6569 71.6569C70.1566 73.1571 68.1217 74 66 74H8C5.87827 74 3.84344 73.1571 2.34315 71.6569C0.842855 70.1566 0 68.1217 0 66V8Z" fill="#009FDF"/>
<path d="M14.782 35.618L14 37.814H24.834L25.616 35.618H14.782ZM15.952 32.309L15.171 34.515H26.005L26.787 32.309H15.952ZM17.125 29L16.344 31.206H27.178L27.96 29H17.125Z" fill="white"/>
<path d="M53.355 39.833H55.296C55.906 39.833 56.267 39.95 56.538 40.161C56.99 40.513 57.215 41.005 57.215 41.708C57.215 42.412 56.99 42.788 56.832 42.998C56.515 43.42 56.064 43.608 55.319 43.608H53.355V39.833ZM54.981 45.866C56.717 45.866 57.573 45.702 58.385 45.118C59.084 44.603 59.918 43.598 59.918 41.774C59.918 39.926 59.106 38.991 58.633 38.57C58.024 38.032 57.145 37.611 55.454 37.611H53.357V34.618H58.497L59.241 32.35H50.765V45.866H54.981ZM45.871 45.866V34.618H49.202L49.944 32.35H39.505V34.618H43.262V45.866H45.871ZM32.84 34.571H34.214C34.71 34.571 34.957 34.595 35.204 34.665C35.791 34.852 36.196 35.25 36.196 36.161C36.196 36.933 35.813 37.494 35.205 37.681C34.98 37.751 34.755 37.751 34.305 37.751H32.84V34.571ZM34.575 40.09C35.385 40.09 35.858 40.207 36.241 40.698C36.466 41.002 36.579 41.423 36.579 41.868C36.579 42.452 36.421 42.896 36.061 43.247C35.701 43.597 35.205 43.644 34.665 43.644H32.863V40.09H34.575ZM38.043 37.939C38.56 37.424 38.876 36.652 38.876 35.74C38.876 34.034 37.885 32.958 36.376 32.537C35.858 32.397 35.273 32.35 34.417 32.35H30.25V45.866H34.956C35.88 45.866 36.375 45.819 36.848 45.679C38.402 45.258 39.348 43.925 39.348 42.077C39.348 40.955 39.01 40.09 38.244 39.435C37.8791 39.1312 37.4688 38.8866 37.028 38.71V38.664C37.4108 38.4921 37.7555 38.2456 38.042 37.939H38.043Z" fill="white"/>
</svg>
